<svg width="512" height="512" viewBox="0 0 512 512" fill="none" xmlns="http://www.w3.org/2000/svg">
<path d="M194.861 452.878C166.53 457.807 143.416 454.575 125.517 443.183C106.514 431.028 94.2337 409.4 88.6758 378.3C86.5916 366.638 85.4954 353.467 85.3871 338.788C85.0912 324.143 86.0148 309.284 88.158 294.214C90.5662 277.38 94.5305 261.134 100.051 245.476C105.759 229.785 113.078 215.532 122.008 202.717C142.65 173.167 171.357 155.193 208.131 148.795C231.583 144.715 249.649 147.298 262.328 156.545C272.139 163.809 278.516 175.679 281.46 192.155C284.338 208.26 283.486 224.06 278.904 239.555C274.289 254.864 266.672 269.074 256.053 282.183C245.401 295.107 232.681 306.196 217.891 315.449C203.068 324.518 187.219 331.093 170.344 335.174C171.126 344.964 172.014 352.635 173.006 358.189C176.314 376.701 182.162 388.854 190.549 394.648C197.865 399.865 208.746 401.217 223.193 398.703C244.019 395.08 262.07 386.213 277.346 372.103C283.836 366.202 289.896 359.517 295.525 352.048C301.122 344.393 307.546 334.877 314.798 323.499L334.499 320.072C321.725 353.598 305.123 381.395 284.692 403.465C259.514 430.368 229.571 446.84 194.861 452.878ZM169.984 307.178C180.546 304.577 190.413 299.711 199.585 292.58C208.757 285.449 216.506 276.847 222.831 266.776C229.123 256.519 233.545 245.538 236.096 233.832C238.613 221.942 238.847 210.258 236.796 198.78C235.439 191.19 233.288 185.647 230.342 182.152C227.55 178.438 223.528 177.038 218.274 177.952C211.333 179.16 204.892 183.716 198.954 191.621C193.203 199.493 188.086 209.831 183.603 222.636C179.552 234.603 176.327 247.953 173.93 262.685C171.533 277.418 170.218 292.249 169.984 307.178Z" fill="white"/>
<path fill-rule="evenodd" clip-rule="evenodd" d="M335.437 133.46C341.39 131.882 347.544 135.247 349.184 140.977C359.697 177.706 362.558 223.639 354.159 268.34C345.759 313.046 325.922 357.354 290.185 389.844C285.697 393.925 278.621 393.73 274.382 389.409C270.142 385.088 270.344 378.277 274.833 374.197C306.173 345.705 324.347 306.074 332.157 264.51C339.968 222.941 337.239 180.272 327.629 146.693C325.989 140.964 329.485 135.039 335.437 133.46Z" fill="white"/>
<path d="M349.369 68.488C328.854 82.4155 334.227 131.529 338.379 146.922C339.844 136.66 373.546 127.13 392.595 114.669C413.885 100.741 429.96 72.3975 429.228 65.5559C424.832 58.2255 377.869 49.1386 349.369 68.488Z" fill="white"/>
<path fill-rule="evenodd" clip-rule="evenodd" d="M337.826 146.751L334.944 146.922C332.816 139.237 330.405 123.287 331.117 107.518C331.474 99.6274 332.616 91.7138 335.006 84.8732C337.394 78.0407 341.074 72.1535 346.594 68.5025C361.301 58.7766 380.646 56.2547 396.752 57.0161C404.824 57.3977 412.155 58.6068 417.778 60.1903C420.586 60.9814 423.004 61.8755 424.887 62.8259C426.713 63.7476 428.246 64.8244 429.018 66.079L429.185 66.3503L429.22 66.665C429.342 67.7781 429.109 69.157 428.679 70.6412C428.24 72.1582 427.555 73.9162 426.662 75.8393C424.873 79.6879 422.207 84.2868 418.855 89.0854C412.161 98.6689 402.635 109.185 391.711 116.146C384.264 120.891 374.605 125.216 365.565 129.263C362.84 130.483 360.171 131.678 357.635 132.851C352.113 135.408 347.232 137.858 343.653 140.267C341.866 141.47 340.455 142.629 339.461 143.745C338.464 144.865 337.957 145.862 337.826 146.751ZM336.367 146.548C336.482 145.762 336.795 144.981 337.284 144.202C340.652 138.836 352.354 133.596 365.026 127.922C374.047 123.883 383.559 119.624 390.905 114.943C412.321 101.296 428.491 73.5221 427.754 66.8181C423.332 59.6352 376.091 50.731 347.422 69.6912C327.843 82.6396 331.705 126.624 335.719 143.979C335.936 144.916 336.153 145.775 336.367 146.548Z" fill="white"/>
<path d="M335.978 144.158C336.627 145.09 337.302 146.012 338.008 146.923C337.794 145.63 337.105 144.746 335.978 144.158C325.594 129.24 321.872 111.983 301.993 105.051C273.729 95.1957 264.523 111.021 232.727 118.061C234.846 122.284 257.121 137.833 285.035 142.36C310.709 146.524 329.836 140.95 335.978 144.158Z" fill="white"/>
<path fill-rule="evenodd" clip-rule="evenodd" d="M338.922 146.923L341.517 145.886C341.24 144.337 340.348 143.204 338.991 142.455C336.44 139.044 334.275 135.497 332.138 131.942C331.989 131.695 331.841 131.448 331.693 131.201C329.663 127.822 327.631 124.439 325.325 121.261C320.342 114.394 314.02 108.4 303.368 104.975C295.927 102.583 289.677 101.73 283.957 101.936C278.241 102.141 273.131 103.401 267.985 105.144C264.89 106.193 261.804 107.403 258.564 108.674C250.947 111.662 242.479 114.983 231.042 117.318L229.217 117.69L230.053 119.225C230.441 119.939 231.189 120.739 232.109 121.559C233.059 122.407 234.299 123.368 235.789 124.401C238.772 126.469 242.818 128.867 247.688 131.266C257.425 136.062 270.536 140.899 285.14 143.083C298.554 145.088 310.245 144.746 319.32 144.295C320.372 144.243 321.384 144.189 322.358 144.138C325.609 143.966 328.425 143.818 330.817 143.813C333.737 143.807 335.742 144.026 337.004 144.527C337.619 145.332 338.257 146.132 338.922 146.923ZM337.981 143.471C337.356 143.17 336.601 142.95 335.722 142.795C332.651 142.252 328.067 142.494 322.244 142.801C312.819 143.299 300.146 143.968 285.374 141.76C258.888 137.8 237.318 124.98 232.294 119.807C231.85 119.35 231.536 118.952 231.358 118.626C231.862 118.523 232.361 118.418 232.854 118.312C243.686 115.968 251.942 112.731 259.269 109.858C273.341 104.34 283.988 100.165 302.886 106.24C317.939 111.079 324.02 121.203 330.421 131.859C332.369 135.102 334.347 138.395 336.616 141.602C337.06 142.229 337.514 142.852 337.981 143.471ZM337.981 143.471C338.651 144.358 339.348 145.236 340.077 146.103C339.857 144.872 339.144 144.031 337.981 143.471Z" fill="white"/>
</svg>
